<?xml version="1.0" standalone="no"?>
<!DOCTYPE svg PUBLIC "-//W3C//DTD SVG 20010904//EN"
 "http://www.w3.org/TR/2001/REC-SVG-20010904/DTD/svg10.dtd">
<svg version="1.0" xmlns="http://www.w3.org/2000/svg"
 width="1080.000000pt" height="1080.000000pt" viewBox="0 0 1080.000000 1080.000000"
 preserveAspectRatio="xMidYMid meet">
<metadata>
Created by potrace 1.16, written by Peter Selinger 2001-2019
</metadata>
<g transform="translate(0.000000,1080.000000) scale(0.100000,-0.100000)"
fill="#000000" stroke="none">
<path d="M5025 10213 c-99 -7 -383 -45 -515 -69 -704 -130 -1401 -434 -1985
-869 -369 -273 -727 -631 -1000 -1000 -536 -720 -859 -1576 -935 -2470 -5 -66
-10 -248 -10 -405 0 -372 18 -578 76 -890 221 -1187 894 -2261 1869 -2986 719
-534 1577 -858 2470 -934 155 -13 655 -13 810 0 794 67 1567 333 2230 767 807
528 1434 1279 1814 2170 189 443 319 973 361 1468 13 155 13 655 0 810 -130
1544 -992 2925 -2329 3735 -615 371 -1344 607 -2076 670 -109 9 -659 11 -780
3z m660 -394 c603 -42 1161 -195 1697 -466 459 -232 836 -511 1200 -888 603
-625 1018 -1447 1162 -2304 46 -273 59 -434 60 -741 0 -265 -6 -368 -36 -603
l-11 -89 -1256 1254 c-691 690 -1283 1277 -1316 1304 -398 332 -821 522 -1342
601 -138 21 -526 24 -663 4 -344 -48 -605 -129 -895 -280 -245 -127 -424 -259
-630 -466 -190 -189 -316 -355 -442 -580 -300 -538 -397 -1204 -263 -1815 92
-426 302 -841 585 -1160 32 -36 614 -623 1294 -1304 l1236 -1240 -90 -12
c-259 -36 -699 -47 -950 -25 -909 80 -1719 406 -2430 979 -140 113 -397 361
-521 503 -247 282 -469 611 -635 940 -239 477 -384 977 -446 1539 -26 236 -23
687 6 929 105 884 425 1637 989 2331 110 135 447 472 582 582 458 372 932 632
1472 807 329 106 762 186 1103 204 125 6 425 4 540 -4z"/>
</g>
</svg>
